<?xml version="1.0" encoding="UTF-8"?>
<svg width="59px" height="59px" viewBox="0 0 59 59" version="1.1" xmlns="http://www.w3.org/2000/svg" xmlns:xlink="http://www.w3.org/1999/xlink">
    <title>􀥳</title>
    <g id="Website" stroke="none" stroke-width="1" fill="none" fill-rule="evenodd">
        <g id="Frame" transform="translate(-21, -20)" fill="#000000">
            <g id="􀥳" transform="translate(50.3145, 49.5176) rotate(45) translate(-50.3145, -49.5176)translate(28.3145, 30.5176)">
                <path d="M0.591014358,1.21372749 C0.754052802,0.509485785 1.09371623,0.112486786 1.61000463,0.0227304904 C2.12629304,-0.0670258051 2.59502856,0.109034621 3.01621121,0.550911768 C3.99444187,1.61417865 5.04060522,2.39091583 6.15470125,2.88112329 C7.26879728,3.37133075 8.40327312,3.68202562 9.55812876,3.81320789 C10.7129844,3.94439017 11.8338737,4.00998131 12.9207967,4.00998131 C13.9262004,4.00998131 14.9995368,3.94093801 16.1408059,3.8028514 C17.282075,3.66476479 18.4369307,3.53013035 19.6053729,3.39894807 C20.773815,3.26776579 21.9014976,3.20217465 22.9884206,3.20217465 C26.2356029,3.20217465 29.1125521,3.74761676 31.6192682,4.83850096 C34.1259843,5.92938517 36.0926355,7.58297231 37.5192219,9.79926237 C38.9458082,12.0155524 39.6591014,14.8083541 39.6591014,18.1776673 C39.6591014,18.6333532 39.6455149,19.0855868 39.6183418,19.5343683 C39.5911688,19.9831498 39.5504091,20.3525314 39.496063,20.6425133 C39.4417168,21.0153472 39.2413154,21.2604509 38.8948587,21.3778245 C38.548402,21.4951981 38.205342,21.4019897 37.8656786,21.0981991 C36.3983326,19.717333 34.9275899,18.6885878 33.4534507,18.0119634 C31.9793114,17.335339 30.5153621,16.8589402 29.0616026,16.582767 C27.6078431,16.3065938 26.1744635,16.1132725 24.7614636,16.0028033 C23.3484638,15.892334 21.962637,15.7300822 20.6039833,15.516048 C19.2453296,15.3020137 17.9274355,14.9153712 16.6503011,14.3561205 C15.3731666,13.7968697 14.1503783,12.9234719 12.9819361,11.7359271 C12.6422727,11.3907105 12.3331789,11.3182151 12.0546549,11.5184407 C11.7761309,11.7186662 11.7048016,11.9982916 11.840667,12.3573168 C12.4248881,13.8900782 13.2604601,15.0845273 14.347383,15.9406643 C15.434306,16.7968013 16.7012506,17.4492605 18.1482168,17.898042 C19.595183,18.3468234 21.1508414,18.7162051 22.8151922,19.006187 C24.479543,19.2961689 26.1846534,19.6413854 27.9305234,20.0418366 C29.6763934,20.4422877 31.3950903,21.0222515 33.0866142,21.7817278 C34.778138,22.5412042 36.3711595,23.6182797 37.8656786,25.0129545 C38.381967,25.5238749 38.9899645,26.1832385 39.6896711,26.9910451 C40.3893778,27.7988518 41.0687046,28.6757018 41.7276517,29.621595 C42.3865987,30.5674883 42.9300602,31.4961207 43.3580361,32.4074924 C43.786012,33.318864 44,34.133575 44,34.8516253 C44,35.7629969 43.7350625,36.515569 43.2051876,37.1093414 C42.6753126,37.7031138 42.0367454,38 41.2894859,38 C40.9362359,38 40.6067624,37.8998872 40.3010653,37.6996616 C39.9953682,37.499436 39.7610005,37.1507674 39.597962,36.6536556 C39.1496063,35.2313635 38.6978539,33.9298972 38.242705,32.7492567 C37.787556,31.5686162 37.257681,30.4708277 36.6530801,29.4558911 C36.0484792,28.4409545 35.3046163,27.4639918 34.4214914,26.5250028 L36.9689671,26.5871418 C36.7923421,26.9323583 36.4764551,27.3914963 36.0213062,27.9645557 C35.5661572,28.5376152 34.9615563,29.1521006 34.2075035,29.8080119 C33.4534507,30.4639233 32.5397561,31.0818609 31.4664196,31.6618247 C30.3930832,32.2417884 29.1465184,32.7181872 27.7267253,33.0910211 C26.3069322,33.4638549 24.7071175,33.6502718 22.9272811,33.6502718 C19.4627142,33.6502718 16.3242242,33.0392386 13.511811,31.8171721 C10.6993979,30.5951056 8.28439092,28.8517622 6.26679018,26.5871418 C4.24918944,24.3225214 2.70032422,21.6160239 1.62019453,18.4676492 C0.540064845,15.3192745 0,11.8049704 0,7.92473666 C0,6.99955639 0.0441562452,5.91557651 0.132468736,4.67279703 C0.220781226,3.43001756 0.373629767,2.27699437 0.591014358,1.21372749 Z" id="Path" fill-rule="nonzero"></path>
            </g>
        </g>
    </g>
</svg>